<?xml version="1.0" encoding="us-ascii" standalone="no"?><svg xmlns="http://www.w3.org/2000/svg" xmlns:xlink="http://www.w3.org/1999/xlink" contentStyleType="text/css" height="810px" preserveAspectRatio="none" style="width:3640px;height:810px;background:#FFFFFF;" version="1.1" viewBox="0 0 3640 810" width="3640px" zoomAndPan="magnify"><defs/><g><!--cluster ru--><g id="cluster_ru"><rect fill="none" height="797" rx="2.5" ry="2.5" style="stroke:#000000;stroke-width:1.5;" width="3627" x="7" y="7"/><text fill="#000000" font-family="sans-serif" font-size="14" font-weight="bold" lengthAdjust="spacing" textLength="17" x="1812" y="21.9951">ru</text></g><!--cluster llexender--><g id="cluster_llexender"><rect fill="none" height="473" rx="2.5" ry="2.5" style="stroke:#000000;stroke-width:1.5;" width="3579" x="31" y="307"/><text fill="#000000" font-family="sans-serif" font-size="14" font-weight="bold" lengthAdjust="spacing" textLength="73" x="1784" y="321.9951">llexender</text></g><!--cluster se--><g id="cluster_se"><rect fill="none" height="406" rx="2.5" ry="2.5" style="stroke:#000000;stroke-width:1.5;" width="3531" x="55" y="350"/><text fill="#000000" font-family="sans-serif" font-size="14" font-weight="bold" lengthAdjust="spacing" textLength="18" x="1811.5" y="364.9951">se</text></g><!--cluster pokebattle--><g id="cluster_pokebattle"><rect fill="none" height="339" rx="2.5" ry="2.5" style="stroke:#000000;stroke-width:1.5;" width="3483" x="79" y="393"/><text fill="#000000" font-family="sans-serif" font-size="14" font-weight="bold" lengthAdjust="spacing" textLength="88" x="1776.5" y="407.9951">pokebattle</text></g><!--cluster moves--><g id="cluster_moves"><rect fill="none" height="148" rx="2.5" ry="2.5" style="stroke:#000000;stroke-width:1.5;" width="2610" x="928" y="436"/><text fill="#000000" font-family="sans-serif" font-size="14" font-weight="bold" lengthAdjust="spacing" textLength="52" x="2207" y="450.9951">moves</text></g><!--cluster pokemons--><g id="cluster_pokemons"><rect fill="none" height="255.5" rx="2.5" ry="2.5" style="stroke:#000000;stroke-width:1.5;" width="630" x="274" y="452.5"/><text fill="#000000" font-family="sans-serif" font-size="14" font-weight="bold" lengthAdjust="spacing" textLength="82" x="548" y="467.4951">pokemons</text></g><!--cluster ifmo--><g id="cluster_ifmo"><rect fill="none" height="233" rx="2.5" ry="2.5" style="stroke:#000000;stroke-width:1.5;" width="699" x="1409" y="50"/><text fill="#000000" font-family="sans-serif" font-size="14" font-weight="bold" lengthAdjust="spacing" textLength="37" x="1740" y="64.9951">ifmo</text></g><!--cluster se--><g id="cluster_se"><rect fill="none" height="166" rx="2.5" ry="2.5" style="stroke:#000000;stroke-width:1.5;" width="651" x="1433" y="93"/><text fill="#000000" font-family="sans-serif" font-size="14" font-weight="bold" lengthAdjust="spacing" textLength="18" x="1749.5" y="107.9951">se</text></g><!--cluster pokemon--><g id="cluster_pokemon"><rect fill="none" height="99" rx="2.5" ry="2.5" style="stroke:#000000;stroke-width:1.5;" width="603" x="1457" y="136"/><text fill="#000000" font-family="sans-serif" font-size="14" font-weight="bold" lengthAdjust="spacing" textLength="73" x="1722" y="150.9951">pokemon</text></g><!--class Main--><g id="elem_Main"><rect codeLine="7" fill="#F1F1F1" height="64.2969" id="Main" rx="2.5" ry="2.5" style="stroke:#181818;stroke-width:0.5;" width="159" x="95.5" y="487.5"/><ellipse cx="154.25" cy="503.5" fill="#ADD1B2" rx="11" ry="11" style="stroke:#181818;stroke-width:1.0;"/><path d="M156.5938,499.1719 C155.6563,498.7344 155.0625,498.5938 154.1875,498.5938 C151.5625,498.5938 149.5625,500.6719 149.5625,503.3906 L149.5625,504.5156 C149.5625,507.0938 151.6719,508.9844 154.5625,508.9844 C155.7813,508.9844 156.9375,508.6875 157.6875,508.1406 C158.2656,507.7344 158.5938,507.2813 158.5938,506.8906 C158.5938,506.4375 158.2031,506.0469 157.7344,506.0469 C157.5156,506.0469 157.3125,506.125 157.125,506.3125 C156.6719,506.7969 156.6719,506.7969 156.4844,506.8906 C156.0625,507.1563 155.375,507.2813 154.6094,507.2813 C152.5625,507.2813 151.2656,506.1875 151.2656,504.4844 L151.2656,503.3906 C151.2656,501.6094 152.5156,500.2969 154.25,500.2969 C154.8281,500.2969 155.4375,500.4531 155.9063,500.7031 C156.3906,500.9844 156.5625,501.2031 156.6563,501.6094 C156.7188,502.0156 156.75,502.1406 156.8906,502.2656 C157.0313,502.4063 157.2656,502.5156 157.4844,502.5156 C157.75,502.5156 158.0156,502.375 158.1875,502.1563 C158.2969,502 158.3281,501.8125 158.3281,501.3906 L158.3281,499.9688 C158.3281,499.5313 158.3125,499.4063 158.2188,499.25 C158.0625,498.9844 157.7813,498.8438 157.4844,498.8438 C157.1875,498.8438 156.9844,498.9375 156.7656,499.25 L156.5938,499.1719 Z " fill="#000000"/><text fill="#000000" font-family="sans-serif" font-size="14" lengthAdjust="spacing" textLength="33" x="174.75" y="508.3467">Main</text><line style="stroke:#181818;stroke-width:0.5;" x1="96.5" x2="253.5" y1="519.5" y2="519.5"/><line style="stroke:#181818;stroke-width:0.5;" x1="96.5" x2="253.5" y1="527.5" y2="527.5"/><ellipse cx="106.5" cy="541.1484" fill="#84BE84" rx="3" ry="3" style="stroke:#038048;stroke-width:1.0;"/><text fill="#000000" font-family="sans-serif" font-size="14" lengthAdjust="spacing" text-decoration="underline" textLength="133" x="115.5" y="544.4951">void main(String[])</text></g><!--class Bite--><g id="elem_Bite"><rect codeLine="11" fill="#F1F1F1" height="96.8906" id="Bite" rx="2.5" ry="2.5" style="stroke:#181818;stroke-width:0.5;" width="261" x="3260.5" y="471"/><ellipse cx="3371.75" cy="487" fill="#ADD1B2" rx="11" ry="11" style="stroke:#181818;stroke-width:1.0;"/><path d="M3374.0938,482.6719 C3373.1563,482.2344 3372.5625,482.0938 3371.6875,482.0938 C3369.0625,482.0938 3367.0625,484.1719 3367.0625,486.8906 L3367.0625,488.0156 C3367.0625,490.5938 3369.1719,492.4844 3372.0625,492.4844 C3373.2813,492.4844 3374.4375,492.1875 3375.1875,491.6406 C3375.7656,491.2344 3376.0938,490.7813 3376.0938,490.3906 C3376.0938,489.9375 3375.7031,489.5469 3375.2344,489.5469 C3375.0156,489.5469 3374.8125,489.625 3374.625,489.8125 C3374.1719,490.2969 3374.1719,490.2969 3373.9844,490.3906 C3373.5625,490.6563 3372.875,490.7813 3372.1094,490.7813 C3370.0625,490.7813 3368.7656,489.6875 3368.7656,487.9844 L3368.7656,486.8906 C3368.7656,485.1094 3370.0156,483.7969 3371.75,483.7969 C3372.3281,483.7969 3372.9375,483.9531 3373.4063,484.2031 C3373.8906,484.4844 3374.0625,484.7031 3374.1563,485.1094 C3374.2188,485.5156 3374.25,485.6406 3374.3906,485.7656 C3374.5313,485.9063 3374.7656,486.0156 3374.9844,486.0156 C3375.25,486.0156 3375.5156,485.875 3375.6875,485.6563 C3375.7969,485.5 3375.8281,485.3125 3375.8281,484.8906 L3375.8281,483.4688 C3375.8281,483.0313 3375.8125,482.9063 3375.7188,482.75 C3375.5625,482.4844 3375.2813,482.3438 3374.9844,482.3438 C3374.6875,482.3438 3374.4844,482.4375 3374.2656,482.75 L3374.0938,482.6719 Z " fill="#000000"/><text fill="#000000" font-family="sans-serif" font-size="14" lengthAdjust="spacing" textLength="30" x="3392.25" y="491.8467">Bite</text><line style="stroke:#181818;stroke-width:0.5;" x1="3261.5" x2="3520.5" y1="503" y2="503"/><line style="stroke:#181818;stroke-width:0.5;" x1="3261.5" x2="3520.5" y1="511" y2="511"/><ellipse cx="3271.5" cy="524.6484" fill="#84BE84" rx="3" ry="3" style="stroke:#038048;stroke-width:1.0;"/><text fill="#000000" font-family="sans-serif" font-size="14" lengthAdjust="spacing" textLength="40" x="3280.5" y="527.9951">Bite()</text><polygon fill="#4177AF" points="3271.5,536.9453,3267.5,542.9453,3275.5,542.9453" style="stroke:#1963A0;stroke-width:1.0;"/><text fill="#000000" font-family="sans-serif" font-size="14" lengthAdjust="spacing" textLength="235" x="3280.5" y="544.292">void applyOppEffects(Pokemon)</text><polygon fill="#4177AF" points="3271.5,553.2422,3267.5,559.2422,3275.5,559.2422" style="stroke:#1963A0;stroke-width:1.0;"/><text fill="#000000" font-family="sans-serif" font-size="14" lengthAdjust="spacing" textLength="120" x="3280.5" y="560.5889">String describe()</text></g><!--class FuryAttack--><g id="elem_FuryAttack"><rect codeLine="16" fill="#F1F1F1" height="80.5938" id="FuryAttack" rx="2.5" ry="2.5" style="stroke:#181818;stroke-width:0.5;" width="146" x="3079" y="479"/><ellipse cx="3109.75" cy="495" fill="#ADD1B2" rx="11" ry="11" style="stroke:#181818;stroke-width:1.0;"/><path d="M3112.0938,490.6719 C3111.1563,490.2344 3110.5625,490.0938 3109.6875,490.0938 C3107.0625,490.0938 3105.0625,492.1719 3105.0625,494.8906 L3105.0625,496.0156 C3105.0625,498.5938 3107.1719,500.4844 3110.0625,500.4844 C3111.2813,500.4844 3112.4375,500.1875 3113.1875,499.6406 C3113.7656,499.2344 3114.0938,498.7813 3114.0938,498.3906 C3114.0938,497.9375 3113.7031,497.5469 3113.2344,497.5469 C3113.0156,497.5469 3112.8125,497.625 3112.625,497.8125 C3112.1719,498.2969 3112.1719,498.2969 3111.9844,498.3906 C3111.5625,498.6563 3110.875,498.7813 3110.1094,498.7813 C3108.0625,498.7813 3106.7656,497.6875 3106.7656,495.9844 L3106.7656,494.8906 C3106.7656,493.1094 3108.0156,491.7969 3109.75,491.7969 C3110.3281,491.7969 3110.9375,491.9531 3111.4063,492.2031 C3111.8906,492.4844 3112.0625,492.7031 3112.1563,493.1094 C3112.2188,493.5156 3112.25,493.6406 3112.3906,493.7656 C3112.5313,493.9063 3112.7656,494.0156 3112.9844,494.0156 C3113.25,494.0156 3113.5156,493.875 3113.6875,493.6563 C3113.7969,493.5 3113.8281,493.3125 3113.8281,492.8906 L3113.8281,491.4688 C3113.8281,491.0313 3113.8125,490.9063 3113.7188,490.75 C3113.5625,490.4844 3113.2813,490.3438 3112.9844,490.3438 C3112.6875,490.3438 3112.4844,490.4375 3112.2656,490.75 L3112.0938,490.6719 Z " fill="#000000"/><text fill="#000000" font-family="sans-serif" font-size="14" lengthAdjust="spacing" textLength="79" x="3127.25" y="499.8467">FuryAttack</text><line style="stroke:#181818;stroke-width:0.5;" x1="3080" x2="3224" y1="511" y2="511"/><line style="stroke:#181818;stroke-width:0.5;" x1="3080" x2="3224" y1="519" y2="519"/><ellipse cx="3090" cy="532.6484" fill="#84BE84" rx="3" ry="3" style="stroke:#038048;stroke-width:1.0;"/><text fill="#000000" font-family="sans-serif" font-size="14" lengthAdjust="spacing" textLength="89" x="3099" y="535.9951">FuryAttack()</text><polygon fill="#4177AF" points="3090,544.9453,3086,550.9453,3094,550.9453" style="stroke:#1963A0;stroke-width:1.0;"/><text fill="#000000" font-family="sans-serif" font-size="14" lengthAdjust="spacing" textLength="120" x="3099" y="552.292">String describe()</text></g><!--class Guillotine--><g id="elem_Guillotine"><rect codeLine="20" fill="#F1F1F1" height="96.8906" id="Guillotine" rx="2.5" ry="2.5" style="stroke:#181818;stroke-width:0.5;" width="261" x="2782.5" y="471"/><ellipse cx="2874.25" cy="487" fill="#ADD1B2" rx="11" ry="11" style="stroke:#181818;stroke-width:1.0;"/><path d="M2876.5938,482.6719 C2875.6563,482.2344 2875.0625,482.0938 2874.1875,482.0938 C2871.5625,482.0938 2869.5625,484.1719 2869.5625,486.8906 L2869.5625,488.0156 C2869.5625,490.5938 2871.6719,492.4844 2874.5625,492.4844 C2875.7813,492.4844 2876.9375,492.1875 2877.6875,491.6406 C2878.2656,491.2344 2878.5938,490.7813 2878.5938,490.3906 C2878.5938,489.9375 2878.2031,489.5469 2877.7344,489.5469 C2877.5156,489.5469 2877.3125,489.625 2877.125,489.8125 C2876.6719,490.2969 2876.6719,490.2969 2876.4844,490.3906 C2876.0625,490.6563 2875.375,490.7813 2874.6094,490.7813 C2872.5625,490.7813 2871.2656,489.6875 2871.2656,487.9844 L2871.2656,486.8906 C2871.2656,485.1094 2872.5156,483.7969 2874.25,483.7969 C2874.8281,483.7969 2875.4375,483.9531 2875.9063,484.2031 C2876.3906,484.4844 2876.5625,484.7031 2876.6563,485.1094 C2876.7188,485.5156 2876.75,485.6406 2876.8906,485.7656 C2877.0313,485.9063 2877.2656,486.0156 2877.4844,486.0156 C2877.75,486.0156 2878.0156,485.875 2878.1875,485.6563 C2878.2969,485.5 2878.3281,485.3125 2878.3281,484.8906 L2878.3281,483.4688 C2878.3281,483.0313 2878.3125,482.9063 2878.2188,482.75 C2878.0625,482.4844 2877.7813,482.3438 2877.4844,482.3438 C2877.1875,482.3438 2876.9844,482.4375 2876.7656,482.75 L2876.5938,482.6719 Z " fill="#000000"/><text fill="#000000" font-family="sans-serif" font-size="14" lengthAdjust="spacing" textLength="69" x="2894.75" y="491.8467">Guillotine</text><line style="stroke:#181818;stroke-width:0.5;" x1="2783.5" x2="3042.5" y1="503" y2="503"/><line style="stroke:#181818;stroke-width:0.5;" x1="2783.5" x2="3042.5" y1="511" y2="511"/><ellipse cx="2793.5" cy="524.6484" fill="#84BE84" rx="3" ry="3" style="stroke:#038048;stroke-width:1.0;"/><text fill="#000000" font-family="sans-serif" font-size="14" lengthAdjust="spacing" textLength="79" x="2802.5" y="527.9951">Guillotine()</text><polygon fill="#4177AF" points="2793.5,536.9453,2789.5,542.9453,2797.5,542.9453" style="stroke:#1963A0;stroke-width:1.0;"/><text fill="#000000" font-family="sans-serif" font-size="14" lengthAdjust="spacing" textLength="235" x="2802.5" y="544.292">void applyOppEffects(Pokemon)</text><polygon fill="#4177AF" points="2793.5,553.2422,2789.5,559.2422,2797.5,559.2422" style="stroke:#1963A0;stroke-width:1.0;"/><text fill="#000000" font-family="sans-serif" font-size="14" lengthAdjust="spacing" textLength="120" x="2802.5" y="560.5889">String describe()</text></g><!--class HydroPump--><g id="elem_HydroPump"><rect codeLine="25" fill="#F1F1F1" height="80.5938" id="HydroPump" rx="2.5" ry="2.5" style="stroke:#181818;stroke-width:0.5;" width="146" x="2123" y="479"/><ellipse cx="2151.95" cy="495" fill="#ADD1B2" rx="11" ry="11" style="stroke:#181818;stroke-width:1.0;"/><path d="M2154.2938,490.6719 C2153.3563,490.2344 2152.7625,490.0938 2151.8875,490.0938 C2149.2625,490.0938 2147.2625,492.1719 2147.2625,494.8906 L2147.2625,496.0156 C2147.2625,498.5938 2149.3719,500.4844 2152.2625,500.4844 C2153.4813,500.4844 2154.6375,500.1875 2155.3875,499.6406 C2155.9656,499.2344 2156.2938,498.7813 2156.2938,498.3906 C2156.2938,497.9375 2155.9031,497.5469 2155.4344,497.5469 C2155.2156,497.5469 2155.0125,497.625 2154.825,497.8125 C2154.3719,498.2969 2154.3719,498.2969 2154.1844,498.3906 C2153.7625,498.6563 2153.075,498.7813 2152.3094,498.7813 C2150.2625,498.7813 2148.9656,497.6875 2148.9656,495.9844 L2148.9656,494.8906 C2148.9656,493.1094 2150.2156,491.7969 2151.95,491.7969 C2152.5281,491.7969 2153.1375,491.9531 2153.6063,492.2031 C2154.0906,492.4844 2154.2625,492.7031 2154.3563,493.1094 C2154.4188,493.5156 2154.45,493.6406 2154.5906,493.7656 C2154.7313,493.9063 2154.9656,494.0156 2155.1844,494.0156 C2155.45,494.0156 2155.7156,493.875 2155.8875,493.6563 C2155.9969,493.5 2156.0281,493.3125 2156.0281,492.8906 L2156.0281,491.4688 C2156.0281,491.0313 2156.0125,490.9063 2155.9188,490.75 C2155.7625,490.4844 2155.4813,490.3438 2155.1844,490.3438 C2154.8875,490.3438 2154.6844,490.4375 2154.4656,490.75 L2154.2938,490.6719 Z " fill="#000000"/><text fill="#000000" font-family="sans-serif" font-size="14" lengthAdjust="spacing" textLength="83" x="2169.05" y="499.8467">HydroPump</text><line style="stroke:#181818;stroke-width:0.5;" x1="2124" x2="2268" y1="511" y2="511"/><line style="stroke:#181818;stroke-width:0.5;" x1="2124" x2="2268" y1="519" y2="519"/><ellipse cx="2134" cy="532.6484" fill="#84BE84" rx="3" ry="3" style="stroke:#038048;stroke-width:1.0;"/><text fill="#000000" font-family="sans-serif" font-size="14" lengthAdjust="spacing" textLength="93" x="2143" y="535.9951">HydroPump()</text><polygon fill="#4177AF" points="2134,544.9453,2130,550.9453,2138,550.9453" style="stroke:#1963A0;stroke-width:1.0;"/><text fill="#000000" font-family="sans-serif" font-size="14" lengthAdjust="spacing" textLength="120" x="2143" y="552.292">String describe()</text></g><!--class LightScreen--><g id="elem_LightScreen"><rect codeLine="29" fill="#F1F1F1" height="96.8906" id="LightScreen" rx="2.5" ry="2.5" style="stroke:#181818;stroke-width:0.5;" width="261" x="1240.5" y="471"/><ellipse cx="1323.25" cy="487" fill="#ADD1B2" rx="11" ry="11" style="stroke:#181818;stroke-width:1.0;"/><path d="M1325.5938,482.6719 C1324.6563,482.2344 1324.0625,482.0938 1323.1875,482.0938 C1320.5625,482.0938 1318.5625,484.1719 1318.5625,486.8906 L1318.5625,488.0156 C1318.5625,490.5938 1320.6719,492.4844 1323.5625,492.4844 C1324.7813,492.4844 1325.9375,492.1875 1326.6875,491.6406 C1327.2656,491.2344 1327.5938,490.7813 1327.5938,490.3906 C1327.5938,489.9375 1327.2031,489.5469 1326.7344,489.5469 C1326.5156,489.5469 1326.3125,489.625 1326.125,489.8125 C1325.6719,490.2969 1325.6719,490.2969 1325.4844,490.3906 C1325.0625,490.6563 1324.375,490.7813 1323.6094,490.7813 C1321.5625,490.7813 1320.2656,489.6875 1320.2656,487.9844 L1320.2656,486.8906 C1320.2656,485.1094 1321.5156,483.7969 1323.25,483.7969 C1323.8281,483.7969 1324.4375,483.9531 1324.9063,484.2031 C1325.3906,484.4844 1325.5625,484.7031 1325.6563,485.1094 C1325.7188,485.5156 1325.75,485.6406 1325.8906,485.7656 C1326.0313,485.9063 1326.2656,486.0156 1326.4844,486.0156 C1326.75,486.0156 1327.0156,485.875 1327.1875,485.6563 C1327.2969,485.5 1327.3281,485.3125 1327.3281,484.8906 L1327.3281,483.4688 C1327.3281,483.0313 1327.3125,482.9063 1327.2188,482.75 C1327.0625,482.4844 1326.7813,482.3438 1326.4844,482.3438 C1326.1875,482.3438 1325.9844,482.4375 1325.7656,482.75 L1325.5938,482.6719 Z " fill="#000000"/><text fill="#000000" font-family="sans-serif" font-size="14" lengthAdjust="spacing" textLength="87" x="1343.75" y="491.8467">LightScreen</text><line style="stroke:#181818;stroke-width:0.5;" x1="1241.5" x2="1500.5" y1="503" y2="503"/><line style="stroke:#181818;stroke-width:0.5;" x1="1241.5" x2="1500.5" y1="511" y2="511"/><ellipse cx="1251.5" cy="524.6484" fill="#84BE84" rx="3" ry="3" style="stroke:#038048;stroke-width:1.0;"/><text fill="#000000" font-family="sans-serif" font-size="14" lengthAdjust="spacing" textLength="97" x="1260.5" y="527.9951">LightScreen()</text><polygon fill="#4177AF" points="1251.5,536.9453,1247.5,542.9453,1255.5,542.9453" style="stroke:#1963A0;stroke-width:1.0;"/><text fill="#000000" font-family="sans-serif" font-size="14" lengthAdjust="spacing" textLength="235" x="1260.5" y="544.292">void applyOppEffects(Pokemon)</text><polygon fill="#4177AF" points="1251.5,553.2422,1247.5,559.2422,1255.5,559.2422" style="stroke:#1963A0;stroke-width:1.0;"/><text fill="#000000" font-family="sans-serif" font-size="14" lengthAdjust="spacing" textLength="120" x="1260.5" y="560.5889">String describe()</text></g><!--class ShadowPunch--><g id="elem_ShadowPunch"><rect codeLine="34" fill="#F1F1F1" height="80.5938" id="ShadowPunch" rx="2.5" ry="2.5" style="stroke:#181818;stroke-width:0.5;" width="146" x="2601" y="479"/><ellipse cx="2623.2" cy="495" fill="#ADD1B2" rx="11" ry="11" style="stroke:#181818;stroke-width:1.0;"/><path d="M2625.5438,490.6719 C2624.6063,490.2344 2624.0125,490.0938 2623.1375,490.0938 C2620.5125,490.0938 2618.5125,492.1719 2618.5125,494.8906 L2618.5125,496.0156 C2618.5125,498.5938 2620.6219,500.4844 2623.5125,500.4844 C2624.7313,500.4844 2625.8875,500.1875 2626.6375,499.6406 C2627.2156,499.2344 2627.5438,498.7813 2627.5438,498.3906 C2627.5438,497.9375 2627.1531,497.5469 2626.6844,497.5469 C2626.4656,497.5469 2626.2625,497.625 2626.075,497.8125 C2625.6219,498.2969 2625.6219,498.2969 2625.4344,498.3906 C2625.0125,498.6563 2624.325,498.7813 2623.5594,498.7813 C2621.5125,498.7813 2620.2156,497.6875 2620.2156,495.9844 L2620.2156,494.8906 C2620.2156,493.1094 2621.4656,491.7969 2623.2,491.7969 C2623.7781,491.7969 2624.3875,491.9531 2624.8563,492.2031 C2625.3406,492.4844 2625.5125,492.7031 2625.6063,493.1094 C2625.6688,493.5156 2625.7,493.6406 2625.8406,493.7656 C2625.9813,493.9063 2626.2156,494.0156 2626.4344,494.0156 C2626.7,494.0156 2626.9656,493.875 2627.1375,493.6563 C2627.2469,493.5 2627.2781,493.3125 2627.2781,492.8906 L2627.2781,491.4688 C2627.2781,491.0313 2627.2625,490.9063 2627.1688,490.75 C2627.0125,490.4844 2626.7313,490.3438 2626.4344,490.3438 C2626.1375,490.3438 2625.9344,490.4375 2625.7156,490.75 L2625.5438,490.6719 Z " fill="#000000"/><text fill="#000000" font-family="sans-serif" font-size="14" lengthAdjust="spacing" textLength="98" x="2638.8" y="499.8467">ShadowPunch</text><line style="stroke:#181818;stroke-width:0.5;" x1="2602" x2="2746" y1="511" y2="511"/><line style="stroke:#181818;stroke-width:0.5;" x1="2602" x2="2746" y1="519" y2="519"/><ellipse cx="2612" cy="532.6484" fill="#84BE84" rx="3" ry="3" style="stroke:#038048;stroke-width:1.0;"/><text fill="#000000" font-family="sans-serif" font-size="14" lengthAdjust="spacing" textLength="108" x="2621" y="535.9951">ShadowPunch()</text><polygon fill="#4177AF" points="2612,544.9453,2608,550.9453,2616,550.9453" style="stroke:#1963A0;stroke-width:1.0;"/><text fill="#000000" font-family="sans-serif" font-size="14" lengthAdjust="spacing" textLength="120" x="2621" y="552.292">String describe()</text></g><!--class SwordsDance--><g id="elem_SwordsDance"><rect codeLine="38" fill="#F1F1F1" height="96.8906" id="SwordsDance" rx="2.5" ry="2.5" style="stroke:#181818;stroke-width:0.5;" width="258" x="1830" y="471"/><ellipse cx="1906.75" cy="487" fill="#ADD1B2" rx="11" ry="11" style="stroke:#181818;stroke-width:1.0;"/><path d="M1909.0938,482.6719 C1908.1563,482.2344 1907.5625,482.0938 1906.6875,482.0938 C1904.0625,482.0938 1902.0625,484.1719 1902.0625,486.8906 L1902.0625,488.0156 C1902.0625,490.5938 1904.1719,492.4844 1907.0625,492.4844 C1908.2813,492.4844 1909.4375,492.1875 1910.1875,491.6406 C1910.7656,491.2344 1911.0938,490.7813 1911.0938,490.3906 C1911.0938,489.9375 1910.7031,489.5469 1910.2344,489.5469 C1910.0156,489.5469 1909.8125,489.625 1909.625,489.8125 C1909.1719,490.2969 1909.1719,490.2969 1908.9844,490.3906 C1908.5625,490.6563 1907.875,490.7813 1907.1094,490.7813 C1905.0625,490.7813 1903.7656,489.6875 1903.7656,487.9844 L1903.7656,486.8906 C1903.7656,485.1094 1905.0156,483.7969 1906.75,483.7969 C1907.3281,483.7969 1907.9375,483.9531 1908.4063,484.2031 C1908.8906,484.4844 1909.0625,484.7031 1909.1563,485.1094 C1909.2188,485.5156 1909.25,485.6406 1909.3906,485.7656 C1909.5313,485.9063 1909.7656,486.0156 1909.9844,486.0156 C1910.25,486.0156 1910.5156,485.875 1910.6875,485.6563 C1910.7969,485.5 1910.8281,485.3125 1910.8281,484.8906 L1910.8281,483.4688 C1910.8281,483.0313 1910.8125,482.9063 1910.7188,482.75 C1910.5625,482.4844 1910.2813,482.3438 1909.9844,482.3438 C1909.6875,482.3438 1909.4844,482.4375 1909.2656,482.75 L1909.0938,482.6719 Z " fill="#000000"/><text fill="#000000" font-family="sans-serif" font-size="14" lengthAdjust="spacing" textLength="96" x="1927.25" y="491.8467">SwordsDance</text><line style="stroke:#181818;stroke-width:0.5;" x1="1831" x2="2087" y1="503" y2="503"/><line style="stroke:#181818;stroke-width:0.5;" x1="1831" x2="2087" y1="511" y2="511"/><ellipse cx="1841" cy="524.6484" fill="#84BE84" rx="3" ry="3" style="stroke:#038048;stroke-width:1.0;"/><text fill="#000000" font-family="sans-serif" font-size="14" lengthAdjust="spacing" textLength="106" x="1850" y="527.9951">SwordsDance()</text><polygon fill="#4177AF" points="1841,536.9453,1837,542.9453,1845,542.9453" style="stroke:#1963A0;stroke-width:1.0;"/><text fill="#000000" font-family="sans-serif" font-size="14" lengthAdjust="spacing" textLength="232" x="1850" y="544.292">void applySelfEffects(Pokemon)</text><polygon fill="#4177AF" points="1841,553.2422,1837,559.2422,1845,559.2422" style="stroke:#1963A0;stroke-width:1.0;"/><text fill="#000000" font-family="sans-serif" font-size="14" lengthAdjust="spacing" textLength="120" x="1850" y="560.5889">String describe()</text></g><!--class Synthesis--><g id="elem_Synthesis"><rect codeLine="43" fill="#F1F1F1" height="96.8906" id="Synthesis" rx="2.5" ry="2.5" style="stroke:#181818;stroke-width:0.5;" width="258" x="1537" y="471"/><ellipse cx="1627.25" cy="487" fill="#ADD1B2" rx="11" ry="11" style="stroke:#181818;stroke-width:1.0;"/><path d="M1629.5938,482.6719 C1628.6563,482.2344 1628.0625,482.0938 1627.1875,482.0938 C1624.5625,482.0938 1622.5625,484.1719 1622.5625,486.8906 L1622.5625,488.0156 C1622.5625,490.5938 1624.6719,492.4844 1627.5625,492.4844 C1628.7813,492.4844 1629.9375,492.1875 1630.6875,491.6406 C1631.2656,491.2344 1631.5938,490.7813 1631.5938,490.3906 C1631.5938,489.9375 1631.2031,489.5469 1630.7344,489.5469 C1630.5156,489.5469 1630.3125,489.625 1630.125,489.8125 C1629.6719,490.2969 1629.6719,490.2969 1629.4844,490.3906 C1629.0625,490.6563 1628.375,490.7813 1627.6094,490.7813 C1625.5625,490.7813 1624.2656,489.6875 1624.2656,487.9844 L1624.2656,486.8906 C1624.2656,485.1094 1625.5156,483.7969 1627.25,483.7969 C1627.8281,483.7969 1628.4375,483.9531 1628.9063,484.2031 C1629.3906,484.4844 1629.5625,484.7031 1629.6563,485.1094 C1629.7188,485.5156 1629.75,485.6406 1629.8906,485.7656 C1630.0313,485.9063 1630.2656,486.0156 1630.4844,486.0156 C1630.75,486.0156 1631.0156,485.875 1631.1875,485.6563 C1631.2969,485.5 1631.3281,485.3125 1631.3281,484.8906 L1631.3281,483.4688 C1631.3281,483.0313 1631.3125,482.9063 1631.2188,482.75 C1631.0625,482.4844 1630.7813,482.3438 1630.4844,482.3438 C1630.1875,482.3438 1629.9844,482.4375 1629.7656,482.75 L1629.5938,482.6719 Z " fill="#000000"/><text fill="#000000" font-family="sans-serif" font-size="14" lengthAdjust="spacing" textLength="69" x="1647.75" y="491.8467">Synthesis</text><line style="stroke:#181818;stroke-width:0.5;" x1="1538" x2="1794" y1="503" y2="503"/><line style="stroke:#181818;stroke-width:0.5;" x1="1538" x2="1794" y1="511" y2="511"/><ellipse cx="1548" cy="524.6484" fill="#84BE84" rx="3" ry="3" style="stroke:#038048;stroke-width:1.0;"/><text fill="#000000" font-family="sans-serif" font-size="14" lengthAdjust="spacing" textLength="79" x="1557" y="527.9951">Synthesis()</text><polygon fill="#4177AF" points="1548,536.9453,1544,542.9453,1552,542.9453" style="stroke:#1963A0;stroke-width:1.0;"/><text fill="#000000" font-family="sans-serif" font-size="14" lengthAdjust="spacing" textLength="232" x="1557" y="544.292">void applySelfEffects(Pokemon)</text><polygon fill="#4177AF" points="1548,553.2422,1544,559.2422,1552,559.2422" style="stroke:#1963A0;stroke-width:1.0;"/><text fill="#000000" font-family="sans-serif" font-size="14" lengthAdjust="spacing" textLength="120" x="1557" y="560.5889">String describe()</text></g><!--class ThunderShock--><g id="elem_ThunderShock"><rect codeLine="48" fill="#F1F1F1" height="96.8906" id="ThunderShock" rx="2.5" ry="2.5" style="stroke:#181818;stroke-width:0.5;" width="261" x="2304.5" y="471"/><ellipse cx="2379.25" cy="487" fill="#ADD1B2" rx="11" ry="11" style="stroke:#181818;stroke-width:1.0;"/><path d="M2381.5938,482.6719 C2380.6563,482.2344 2380.0625,482.0938 2379.1875,482.0938 C2376.5625,482.0938 2374.5625,484.1719 2374.5625,486.8906 L2374.5625,488.0156 C2374.5625,490.5938 2376.6719,492.4844 2379.5625,492.4844 C2380.7813,492.4844 2381.9375,492.1875 2382.6875,491.6406 C2383.2656,491.2344 2383.5938,490.7813 2383.5938,490.3906 C2383.5938,489.9375 2383.2031,489.5469 2382.7344,489.5469 C2382.5156,489.5469 2382.3125,489.625 2382.125,489.8125 C2381.6719,490.2969 2381.6719,490.2969 2381.4844,490.3906 C2381.0625,490.6563 2380.375,490.7813 2379.6094,490.7813 C2377.5625,490.7813 2376.2656,489.6875 2376.2656,487.9844 L2376.2656,486.8906 C2376.2656,485.1094 2377.5156,483.7969 2379.25,483.7969 C2379.8281,483.7969 2380.4375,483.9531 2380.9063,484.2031 C2381.3906,484.4844 2381.5625,484.7031 2381.6563,485.1094 C2381.7188,485.5156 2381.75,485.6406 2381.8906,485.7656 C2382.0313,485.9063 2382.2656,486.0156 2382.4844,486.0156 C2382.75,486.0156 2383.0156,485.875 2383.1875,485.6563 C2383.2969,485.5 2383.3281,485.3125 2383.3281,484.8906 L2383.3281,483.4688 C2383.3281,483.0313 2383.3125,482.9063 2383.2188,482.75 C2383.0625,482.4844 2382.7813,482.3438 2382.4844,482.3438 C2382.1875,482.3438 2381.9844,482.4375 2381.7656,482.75 L2381.5938,482.6719 Z " fill="#000000"/><text fill="#000000" font-family="sans-serif" font-size="14" lengthAdjust="spacing" textLength="103" x="2399.75" y="491.8467">ThunderShock</text><line style="stroke:#181818;stroke-width:0.5;" x1="2305.5" x2="2564.5" y1="503" y2="503"/><line style="stroke:#181818;stroke-width:0.5;" x1="2305.5" x2="2564.5" y1="511" y2="511"/><ellipse cx="2315.5" cy="524.6484" fill="#84BE84" rx="3" ry="3" style="stroke:#038048;stroke-width:1.0;"/><text fill="#000000" font-family="sans-serif" font-size="14" lengthAdjust="spacing" textLength="113" x="2324.5" y="527.9951">ThunderShock()</text><polygon fill="#4177AF" points="2315.5,536.9453,2311.5,542.9453,2319.5,542.9453" style="stroke:#1963A0;stroke-width:1.0;"/><text fill="#000000" font-family="sans-serif" font-size="14" lengthAdjust="spacing" textLength="235" x="2324.5" y="544.292">void applyOppEffects(Pokemon)</text><polygon fill="#4177AF" points="2315.5,553.2422,2311.5,559.2422,2319.5,559.2422" style="stroke:#1963A0;stroke-width:1.0;"/><text fill="#000000" font-family="sans-serif" font-size="14" lengthAdjust="spacing" textLength="120" x="2324.5" y="560.5889">String describe()</text></g><!--class ThunderWave--><g id="elem_ThunderWave"><rect codeLine="53" fill="#F1F1F1" height="96.8906" id="ThunderWave" rx="2.5" ry="2.5" style="stroke:#181818;stroke-width:0.5;" width="261" x="944.5" y="471"/><ellipse cx="1021.75" cy="487" fill="#ADD1B2" rx="11" ry="11" style="stroke:#181818;stroke-width:1.0;"/><path d="M1024.0938,482.6719 C1023.1563,482.2344 1022.5625,482.0938 1021.6875,482.0938 C1019.0625,482.0938 1017.0625,484.1719 1017.0625,486.8906 L1017.0625,488.0156 C1017.0625,490.5938 1019.1719,492.4844 1022.0625,492.4844 C1023.2813,492.4844 1024.4375,492.1875 1025.1875,491.6406 C1025.7656,491.2344 1026.0938,490.7813 1026.0938,490.3906 C1026.0938,489.9375 1025.7031,489.5469 1025.2344,489.5469 C1025.0156,489.5469 1024.8125,489.625 1024.625,489.8125 C1024.1719,490.2969 1024.1719,490.2969 1023.9844,490.3906 C1023.5625,490.6563 1022.875,490.7813 1022.1094,490.7813 C1020.0625,490.7813 1018.7656,489.6875 1018.7656,487.9844 L1018.7656,486.8906 C1018.7656,485.1094 1020.0156,483.7969 1021.75,483.7969 C1022.3281,483.7969 1022.9375,483.9531 1023.4063,484.2031 C1023.8906,484.4844 1024.0625,484.7031 1024.1563,485.1094 C1024.2188,485.5156 1024.25,485.6406 1024.3906,485.7656 C1024.5313,485.9063 1024.7656,486.0156 1024.9844,486.0156 C1025.25,486.0156 1025.5156,485.875 1025.6875,485.6563 C1025.7969,485.5 1025.8281,485.3125 1025.8281,484.8906 L1025.8281,483.4688 C1025.8281,483.0313 1025.8125,482.9063 1025.7188,482.75 C1025.5625,482.4844 1025.2813,482.3438 1024.9844,482.3438 C1024.6875,482.3438 1024.4844,482.4375 1024.2656,482.75 L1024.0938,482.6719 Z " fill="#000000"/><text fill="#000000" font-family="sans-serif" font-size="14" lengthAdjust="spacing" textLength="98" x="1042.25" y="491.8467">ThunderWave</text><line style="stroke:#181818;stroke-width:0.5;" x1="945.5" x2="1204.5" y1="503" y2="503"/><line style="stroke:#181818;stroke-width:0.5;" x1="945.5" x2="1204.5" y1="511" y2="511"/><ellipse cx="955.5" cy="524.6484" fill="#84BE84" rx="3" ry="3" style="stroke:#038048;stroke-width:1.0;"/><text fill="#000000" font-family="sans-serif" font-size="14" lengthAdjust="spacing" textLength="108" x="964.5" y="527.9951">ThunderWave()</text><polygon fill="#4177AF" points="955.5,536.9453,951.5,542.9453,959.5,542.9453" style="stroke:#1963A0;stroke-width:1.0;"/><text fill="#000000" font-family="sans-serif" font-size="14" lengthAdjust="spacing" textLength="235" x="964.5" y="544.292">void applyOppEffects(Pokemon)</text><polygon fill="#4177AF" points="955.5,553.2422,951.5,559.2422,959.5,559.2422" style="stroke:#1963A0;stroke-width:1.0;"/><text fill="#000000" font-family="sans-serif" font-size="14" lengthAdjust="spacing" textLength="120" x="964.5" y="560.5889">String describe()</text></g><!--class Espeon--><g id="elem_Espeon"><rect codeLine="60" fill="#F1F1F1" height="64.2969" id="Espeon" rx="2.5" ry="2.5" style="stroke:#181818;stroke-width:0.5;" width="89" x="537.5" y="487.5"/><ellipse cx="554.3" cy="503.5" fill="#ADD1B2" rx="11" ry="11" style="stroke:#181818;stroke-width:1.0;"/><path d="M556.6438,499.1719 C555.7063,498.7344 555.1125,498.5938 554.2375,498.5938 C551.6125,498.5938 549.6125,500.6719 549.6125,503.3906 L549.6125,504.5156 C549.6125,507.0938 551.7219,508.9844 554.6125,508.9844 C555.8313,508.9844 556.9875,508.6875 557.7375,508.1406 C558.3156,507.7344 558.6438,507.2813 558.6438,506.8906 C558.6438,506.4375 558.2531,506.0469 557.7844,506.0469 C557.5656,506.0469 557.3625,506.125 557.175,506.3125 C556.7219,506.7969 556.7219,506.7969 556.5344,506.8906 C556.1125,507.1563 555.425,507.2813 554.6594,507.2813 C552.6125,507.2813 551.3156,506.1875 551.3156,504.4844 L551.3156,503.3906 C551.3156,501.6094 552.5656,500.2969 554.3,500.2969 C554.8781,500.2969 555.4875,500.4531 555.9563,500.7031 C556.4406,500.9844 556.6125,501.2031 556.7063,501.6094 C556.7688,502.0156 556.8,502.1406 556.9406,502.2656 C557.0813,502.4063 557.3156,502.5156 557.5344,502.5156 C557.8,502.5156 558.0656,502.375 558.2375,502.1563 C558.3469,502 558.3781,501.8125 558.3781,501.3906 L558.3781,499.9688 C558.3781,499.5313 558.3625,499.4063 558.2688,499.25 C558.1125,498.9844 557.8313,498.8438 557.5344,498.8438 C557.2375,498.8438 557.0344,498.9375 556.8156,499.25 L556.6438,499.1719 Z " fill="#000000"/><text fill="#000000" font-family="sans-serif" font-size="14" lengthAdjust="spacing" textLength="53" x="568.7" y="508.3467">Espeon</text><line style="stroke:#181818;stroke-width:0.5;" x1="538.5" x2="625.5" y1="519.5" y2="519.5"/><line style="stroke:#181818;stroke-width:0.5;" x1="538.5" x2="625.5" y1="527.5" y2="527.5"/><ellipse cx="548.5" cy="541.1484" fill="#84BE84" rx="3" ry="3" style="stroke:#038048;stroke-width:1.0;"/><text fill="#000000" font-family="sans-serif" font-size="14" lengthAdjust="spacing" textLength="63" x="557.5" y="544.4951">Espeon()</text></g><!--class Ludicolo--><g id="elem_Ludicolo"><rect codeLine="63" fill="#F1F1F1" height="64.2969" id="Ludicolo" rx="2.5" ry="2.5" style="stroke:#181818;stroke-width:0.5;" width="95" x="407.5" y="487.5"/><ellipse cx="424.3" cy="503.5" fill="#ADD1B2" rx="11" ry="11" style="stroke:#181818;stroke-width:1.0;"/><path d="M426.6438,499.1719 C425.7063,498.7344 425.1125,498.5938 424.2375,498.5938 C421.6125,498.5938 419.6125,500.6719 419.6125,503.3906 L419.6125,504.5156 C419.6125,507.0938 421.7219,508.9844 424.6125,508.9844 C425.8313,508.9844 426.9875,508.6875 427.7375,508.1406 C428.3156,507.7344 428.6438,507.2813 428.6438,506.8906 C428.6438,506.4375 428.2531,506.0469 427.7844,506.0469 C427.5656,506.0469 427.3625,506.125 427.175,506.3125 C426.7219,506.7969 426.7219,506.7969 426.5344,506.8906 C426.1125,507.1563 425.425,507.2813 424.6594,507.2813 C422.6125,507.2813 421.3156,506.1875 421.3156,504.4844 L421.3156,503.3906 C421.3156,501.6094 422.5656,500.2969 424.3,500.2969 C424.8781,500.2969 425.4875,500.4531 425.9563,500.7031 C426.4406,500.9844 426.6125,501.2031 426.7063,501.6094 C426.7688,502.0156 426.8,502.1406 426.9406,502.2656 C427.0813,502.4063 427.3156,502.5156 427.5344,502.5156 C427.8,502.5156 428.0656,502.375 428.2375,502.1563 C428.3469,502 428.3781,501.8125 428.3781,501.3906 L428.3781,499.9688 C428.3781,499.5313 428.3625,499.4063 428.2688,499.25 C428.1125,498.9844 427.8313,498.8438 427.5344,498.8438 C427.2375,498.8438 427.0344,498.9375 426.8156,499.25 L426.6438,499.1719 Z " fill="#000000"/><text fill="#000000" font-family="sans-serif" font-size="14" lengthAdjust="spacing" textLength="59" x="438.7" y="508.3467">Ludicolo</text><line style="stroke:#181818;stroke-width:0.5;" x1="408.5" x2="501.5" y1="519.5" y2="519.5"/><line style="stroke:#181818;stroke-width:0.5;" x1="408.5" x2="501.5" y1="527.5" y2="527.5"/><ellipse cx="418.5" cy="541.1484" fill="#84BE84" rx="3" ry="3" style="stroke:#038048;stroke-width:1.0;"/><text fill="#000000" font-family="sans-serif" font-size="14" lengthAdjust="spacing" textLength="69" x="427.5" y="544.4951">Ludicolo()</text></g><!--class Staryu--><g id="elem_Staryu"><rect codeLine="66" fill="#F1F1F1" height="64.2969" id="Staryu" rx="2.5" ry="2.5" style="stroke:#181818;stroke-width:0.5;" width="82" x="290" y="487.5"/><ellipse cx="306.8" cy="503.5" fill="#ADD1B2" rx="11" ry="11" style="stroke:#181818;stroke-width:1.0;"/><path d="M309.1438,499.1719 C308.2063,498.7344 307.6125,498.5938 306.7375,498.5938 C304.1125,498.5938 302.1125,500.6719 302.1125,503.3906 L302.1125,504.5156 C302.1125,507.0938 304.2219,508.9844 307.1125,508.9844 C308.3313,508.9844 309.4875,508.6875 310.2375,508.1406 C310.8156,507.7344 311.1438,507.2813 311.1438,506.8906 C311.1438,506.4375 310.7531,506.0469 310.2844,506.0469 C310.0656,506.0469 309.8625,506.125 309.675,506.3125 C309.2219,506.7969 309.2219,506.7969 309.0344,506.8906 C308.6125,507.1563 307.925,507.2813 307.1594,507.2813 C305.1125,507.2813 303.8156,506.1875 303.8156,504.4844 L303.8156,503.3906 C303.8156,501.6094 305.0656,500.2969 306.8,500.2969 C307.3781,500.2969 307.9875,500.4531 308.4563,500.7031 C308.9406,500.9844 309.1125,501.2031 309.2063,501.6094 C309.2688,502.0156 309.3,502.1406 309.4406,502.2656 C309.5813,502.4063 309.8156,502.5156 310.0344,502.5156 C310.3,502.5156 310.5656,502.375 310.7375,502.1563 C310.8469,502 310.8781,501.8125 310.8781,501.3906 L310.8781,499.9688 C310.8781,499.5313 310.8625,499.4063 310.7688,499.25 C310.6125,498.9844 310.3313,498.8438 310.0344,498.8438 C309.7375,498.8438 309.5344,498.9375 309.3156,499.25 L309.1438,499.1719 Z " fill="#000000"/><text fill="#000000" font-family="sans-serif" font-size="14" lengthAdjust="spacing" textLength="46" x="321.2" y="508.3467">Staryu</text><line style="stroke:#181818;stroke-width:0.5;" x1="291" x2="371" y1="519.5" y2="519.5"/><line style="stroke:#181818;stroke-width:0.5;" x1="291" x2="371" y1="527.5" y2="527.5"/><ellipse cx="301" cy="541.1484" fill="#84BE84" rx="3" ry="3" style="stroke:#038048;stroke-width:1.0;"/><text fill="#000000" font-family="sans-serif" font-size="14" lengthAdjust="spacing" textLength="56" x="310" y="544.4951">Staryu()</text></g><!--class Ursaring--><g id="elem_Ursaring"><rect codeLine="69" fill="#F1F1F1" height="64.2969" id="Ursaring" rx="2.5" ry="2.5" style="stroke:#181818;stroke-width:0.5;" width="94" x="794" y="487.5"/><ellipse cx="810.8" cy="503.5" fill="#ADD1B2" rx="11" ry="11" style="stroke:#181818;stroke-width:1.0;"/><path d="M813.1438,499.1719 C812.2063,498.7344 811.6125,498.5938 810.7375,498.5938 C808.1125,498.5938 806.1125,500.6719 806.1125,503.3906 L806.1125,504.5156 C806.1125,507.0938 808.2219,508.9844 811.1125,508.9844 C812.3313,508.9844 813.4875,508.6875 814.2375,508.1406 C814.8156,507.7344 815.1438,507.2813 815.1438,506.8906 C815.1438,506.4375 814.7531,506.0469 814.2844,506.0469 C814.0656,506.0469 813.8625,506.125 813.675,506.3125 C813.2219,506.7969 813.2219,506.7969 813.0344,506.8906 C812.6125,507.1563 811.925,507.2813 811.1594,507.2813 C809.1125,507.2813 807.8156,506.1875 807.8156,504.4844 L807.8156,503.3906 C807.8156,501.6094 809.0656,500.2969 810.8,500.2969 C811.3781,500.2969 811.9875,500.4531 812.4563,500.7031 C812.9406,500.9844 813.1125,501.2031 813.2063,501.6094 C813.2688,502.0156 813.3,502.1406 813.4406,502.2656 C813.5813,502.4063 813.8156,502.5156 814.0344,502.5156 C814.3,502.5156 814.5656,502.375 814.7375,502.1563 C814.8469,502 814.8781,501.8125 814.8781,501.3906 L814.8781,499.9688 C814.8781,499.5313 814.8625,499.4063 814.7688,499.25 C814.6125,498.9844 814.3313,498.8438 814.0344,498.8438 C813.7375,498.8438 813.5344,498.9375 813.3156,499.25 L813.1438,499.1719 Z " fill="#000000"/><text fill="#000000" font-family="sans-serif" font-size="14" lengthAdjust="spacing" textLength="58" x="825.2" y="508.3467">Ursaring</text><line style="stroke:#181818;stroke-width:0.5;" x1="795" x2="887" y1="519.5" y2="519.5"/><line style="stroke:#181818;stroke-width:0.5;" x1="795" x2="887" y1="527.5" y2="527.5"/><ellipse cx="805" cy="541.1484" fill="#84BE84" rx="3" ry="3" style="stroke:#038048;stroke-width:1.0;"/><text fill="#000000" font-family="sans-serif" font-size="14" lengthAdjust="spacing" textLength="68" x="814" y="544.4951">Ursaring()</text></g><!--class Venomoth--><g id="elem_Venomoth"><rect codeLine="72" fill="#F1F1F1" height="64.2969" id="Venomoth" rx="2.5" ry="2.5" style="stroke:#181818;stroke-width:0.5;" width="112" x="654" y="628"/><ellipse cx="670.8" cy="644" fill="#ADD1B2" rx="11" ry="11" style="stroke:#181818;stroke-width:1.0;"/><path d="M673.1438,639.6719 C672.2063,639.2344 671.6125,639.0938 670.7375,639.0938 C668.1125,639.0938 666.1125,641.1719 666.1125,643.8906 L666.1125,645.0156 C666.1125,647.5938 668.2219,649.4844 671.1125,649.4844 C672.3313,649.4844 673.4875,649.1875 674.2375,648.6406 C674.8156,648.2344 675.1438,647.7813 675.1438,647.3906 C675.1438,646.9375 674.7531,646.5469 674.2844,646.5469 C674.0656,646.5469 673.8625,646.625 673.675,646.8125 C673.2219,647.2969 673.2219,647.2969 673.0344,647.3906 C672.6125,647.6563 671.925,647.7813 671.1594,647.7813 C669.1125,647.7813 667.8156,646.6875 667.8156,644.9844 L667.8156,643.8906 C667.8156,642.1094 669.0656,640.7969 670.8,640.7969 C671.3781,640.7969 671.9875,640.9531 672.4563,641.2031 C672.9406,641.4844 673.1125,641.7031 673.2063,642.1094 C673.2688,642.5156 673.3,642.6406 673.4406,642.7656 C673.5813,642.9063 673.8156,643.0156 674.0344,643.0156 C674.3,643.0156 674.5656,642.875 674.7375,642.6563 C674.8469,642.5 674.8781,642.3125 674.8781,641.8906 L674.8781,640.4688 C674.8781,640.0313 674.8625,639.9063 674.7688,639.75 C674.6125,639.4844 674.3313,639.3438 674.0344,639.3438 C673.7375,639.3438 673.5344,639.4375 673.3156,639.75 L673.1438,639.6719 Z " fill="#000000"/><text fill="#000000" font-family="sans-serif" font-size="14" lengthAdjust="spacing" textLength="76" x="685.2" y="648.8467">Venomoth</text><line style="stroke:#181818;stroke-width:0.5;" x1="655" x2="765" y1="660" y2="660"/><line style="stroke:#181818;stroke-width:0.5;" x1="655" x2="765" y1="668" y2="668"/><ellipse cx="665" cy="681.6484" fill="#84BE84" rx="3" ry="3" style="stroke:#038048;stroke-width:1.0;"/><text fill="#000000" font-family="sans-serif" font-size="14" lengthAdjust="spacing" textLength="86" x="674" y="684.9951">Venomoth()</text></g><!--class Venonat--><g id="elem_Venonat"><rect codeLine="75" fill="#F1F1F1" height="64.2969" id="Venonat" rx="2.5" ry="2.5" style="stroke:#181818;stroke-width:0.5;" width="97" x="661.5" y="487.5"/><ellipse cx="678.3" cy="503.5" fill="#ADD1B2" rx="11" ry="11" style="stroke:#181818;stroke-width:1.0;"/><path d="M680.6438,499.1719 C679.7063,498.7344 679.1125,498.5938 678.2375,498.5938 C675.6125,498.5938 673.6125,500.6719 673.6125,503.3906 L673.6125,504.5156 C673.6125,507.0938 675.7219,508.9844 678.6125,508.9844 C679.8313,508.9844 680.9875,508.6875 681.7375,508.1406 C682.3156,507.7344 682.6438,507.2813 682.6438,506.8906 C682.6438,506.4375 682.2531,506.0469 681.7844,506.0469 C681.5656,506.0469 681.3625,506.125 681.175,506.3125 C680.7219,506.7969 680.7219,506.7969 680.5344,506.8906 C680.1125,507.1563 679.425,507.2813 678.6594,507.2813 C676.6125,507.2813 675.3156,506.1875 675.3156,504.4844 L675.3156,503.3906 C675.3156,501.6094 676.5656,500.2969 678.3,500.2969 C678.8781,500.2969 679.4875,500.4531 679.9563,500.7031 C680.4406,500.9844 680.6125,501.2031 680.7063,501.6094 C680.7688,502.0156 680.8,502.1406 680.9406,502.2656 C681.0813,502.4063 681.3156,502.5156 681.5344,502.5156 C681.8,502.5156 682.0656,502.375 682.2375,502.1563 C682.3469,502 682.3781,501.8125 682.3781,501.3906 L682.3781,499.9688 C682.3781,499.5313 682.3625,499.4063 682.2688,499.25 C682.1125,498.9844 681.8313,498.8438 681.5344,498.8438 C681.2375,498.8438 681.0344,498.9375 680.8156,499.25 L680.6438,499.1719 Z " fill="#000000"/><text fill="#000000" font-family="sans-serif" font-size="14" lengthAdjust="spacing" textLength="61" x="692.7" y="508.3467">Venonat</text><line style="stroke:#181818;stroke-width:0.5;" x1="662.5" x2="757.5" y1="519.5" y2="519.5"/><line style="stroke:#181818;stroke-width:0.5;" x1="662.5" x2="757.5" y1="527.5" y2="527.5"/><ellipse cx="672.5" cy="541.1484" fill="#84BE84" rx="3" ry="3" style="stroke:#038048;stroke-width:1.0;"/><text fill="#000000" font-family="sans-serif" font-size="14" lengthAdjust="spacing" textLength="71" x="681.5" y="544.4951">Venonat()</text></g><!--class PhysicalMove--><g id="elem_PhysicalMove"><rect fill="#F1F1F1" height="48" id="PhysicalMove" rx="2.5" ry="2.5" style="stroke:#181818;stroke-width:0.5;" width="127" x="1916.5" y="171"/><ellipse cx="1931.5" cy="187" fill="#ADD1B2" rx="11" ry="11" style="stroke:#181818;stroke-width:1.0;"/><path d="M1933.8438,182.6719 C1932.9063,182.2344 1932.3125,182.0938 1931.4375,182.0938 C1928.8125,182.0938 1926.8125,184.1719 1926.8125,186.8906 L1926.8125,188.0156 C1926.8125,190.5938 1928.9219,192.4844 1931.8125,192.4844 C1933.0313,192.4844 1934.1875,192.1875 1934.9375,191.6406 C1935.5156,191.2344 1935.8438,190.7813 1935.8438,190.3906 C1935.8438,189.9375 1935.4531,189.5469 1934.9844,189.5469 C1934.7656,189.5469 1934.5625,189.625 1934.375,189.8125 C1933.9219,190.2969 1933.9219,190.2969 1933.7344,190.3906 C1933.3125,190.6563 1932.625,190.7813 1931.8594,190.7813 C1929.8125,190.7813 1928.5156,189.6875 1928.5156,187.9844 L1928.5156,186.8906 C1928.5156,185.1094 1929.7656,183.7969 1931.5,183.7969 C1932.0781,183.7969 1932.6875,183.9531 1933.1563,184.2031 C1933.6406,184.4844 1933.8125,184.7031 1933.9063,185.1094 C1933.9688,185.5156 1934,185.6406 1934.1406,185.7656 C1934.2813,185.9063 1934.5156,186.0156 1934.7344,186.0156 C1935,186.0156 1935.2656,185.875 1935.4375,185.6563 C1935.5469,185.5 1935.5781,185.3125 1935.5781,184.8906 L1935.5781,183.4688 C1935.5781,183.0313 1935.5625,182.9063 1935.4688,182.75 C1935.3125,182.4844 1935.0313,182.3438 1934.7344,182.3438 C1934.4375,182.3438 1934.2344,182.4375 1934.0156,182.75 L1933.8438,182.6719 Z " fill="#000000"/><text fill="#000000" font-family="sans-serif" font-size="14" lengthAdjust="spacing" textLength="95" x="1945.5" y="191.8467">PhysicalMove</text><line style="stroke:#181818;stroke-width:0.5;" x1="1917.5" x2="2042.5" y1="203" y2="203"/><line style="stroke:#181818;stroke-width:0.5;" x1="1917.5" x2="2042.5" y1="211" y2="211"/></g><!--class SpecialMove--><g id="elem_SpecialMove"><rect fill="#F1F1F1" height="48" id="SpecialMove" rx="2.5" ry="2.5" style="stroke:#181818;stroke-width:0.5;" width="122" x="1759" y="171"/><ellipse cx="1774" cy="187" fill="#ADD1B2" rx="11" ry="11" style="stroke:#181818;stroke-width:1.0;"/><path d="M1776.3438,182.6719 C1775.4063,182.2344 1774.8125,182.0938 1773.9375,182.0938 C1771.3125,182.0938 1769.3125,184.1719 1769.3125,186.8906 L1769.3125,188.0156 C1769.3125,190.5938 1771.4219,192.4844 1774.3125,192.4844 C1775.5313,192.4844 1776.6875,192.1875 1777.4375,191.6406 C1778.0156,191.2344 1778.3438,190.7813 1778.3438,190.3906 C1778.3438,189.9375 1777.9531,189.5469 1777.4844,189.5469 C1777.2656,189.5469 1777.0625,189.625 1776.875,189.8125 C1776.4219,190.2969 1776.4219,190.2969 1776.2344,190.3906 C1775.8125,190.6563 1775.125,190.7813 1774.3594,190.7813 C1772.3125,190.7813 1771.0156,189.6875 1771.0156,187.9844 L1771.0156,186.8906 C1771.0156,185.1094 1772.2656,183.7969 1774,183.7969 C1774.5781,183.7969 1775.1875,183.9531 1775.6563,184.2031 C1776.1406,184.4844 1776.3125,184.7031 1776.4063,185.1094 C1776.4688,185.5156 1776.5,185.6406 1776.6406,185.7656 C1776.7813,185.9063 1777.0156,186.0156 1777.2344,186.0156 C1777.5,186.0156 1777.7656,185.875 1777.9375,185.6563 C1778.0469,185.5 1778.0781,185.3125 1778.0781,184.8906 L1778.0781,183.4688 C1778.0781,183.0313 1778.0625,182.9063 1777.9688,182.75 C1777.8125,182.4844 1777.5313,182.3438 1777.2344,182.3438 C1776.9375,182.3438 1776.7344,182.4375 1776.5156,182.75 L1776.3438,182.6719 Z " fill="#000000"/><text fill="#000000" font-family="sans-serif" font-size="14" lengthAdjust="spacing" textLength="90" x="1788" y="191.8467">SpecialMove</text><line style="stroke:#181818;stroke-width:0.5;" x1="1760" x2="1880" y1="203" y2="203"/><line style="stroke:#181818;stroke-width:0.5;" x1="1760" x2="1880" y1="211" y2="211"/></g><!--class StatusMove--><g id="elem_StatusMove"><rect fill="#F1F1F1" height="48" id="StatusMove" rx="2.5" ry="2.5" style="stroke:#181818;stroke-width:0.5;" width="116" x="1608" y="171"/><ellipse cx="1623" cy="187" fill="#ADD1B2" rx="11" ry="11" style="stroke:#181818;stroke-width:1.0;"/><path d="M1625.3438,182.6719 C1624.4063,182.2344 1623.8125,182.0938 1622.9375,182.0938 C1620.3125,182.0938 1618.3125,184.1719 1618.3125,186.8906 L1618.3125,188.0156 C1618.3125,190.5938 1620.4219,192.4844 1623.3125,192.4844 C1624.5313,192.4844 1625.6875,192.1875 1626.4375,191.6406 C1627.0156,191.2344 1627.3438,190.7813 1627.3438,190.3906 C1627.3438,189.9375 1626.9531,189.5469 1626.4844,189.5469 C1626.2656,189.5469 1626.0625,189.625 1625.875,189.8125 C1625.4219,190.2969 1625.4219,190.2969 1625.2344,190.3906 C1624.8125,190.6563 1624.125,190.7813 1623.3594,190.7813 C1621.3125,190.7813 1620.0156,189.6875 1620.0156,187.9844 L1620.0156,186.8906 C1620.0156,185.1094 1621.2656,183.7969 1623,183.7969 C1623.5781,183.7969 1624.1875,183.9531 1624.6563,184.2031 C1625.1406,184.4844 1625.3125,184.7031 1625.4063,185.1094 C1625.4688,185.5156 1625.5,185.6406 1625.6406,185.7656 C1625.7813,185.9063 1626.0156,186.0156 1626.2344,186.0156 C1626.5,186.0156 1626.7656,185.875 1626.9375,185.6563 C1627.0469,185.5 1627.0781,185.3125 1627.0781,184.8906 L1627.0781,183.4688 C1627.0781,183.0313 1627.0625,182.9063 1626.9688,182.75 C1626.8125,182.4844 1626.5313,182.3438 1626.2344,182.3438 C1625.9375,182.3438 1625.7344,182.4375 1625.5156,182.75 L1625.3438,182.6719 Z " fill="#000000"/><text fill="#000000" font-family="sans-serif" font-size="14" lengthAdjust="spacing" textLength="84" x="1637" y="191.8467">StatusMove</text><line style="stroke:#181818;stroke-width:0.5;" x1="1609" x2="1723" y1="203" y2="203"/><line style="stroke:#181818;stroke-width:0.5;" x1="1609" x2="1723" y1="211" y2="211"/></g><!--class Pokemon--><g id="elem_Pokemon"><rect fill="#F1F1F1" height="48" id="Pokemon" rx="2.5" ry="2.5" style="stroke:#181818;stroke-width:0.5;" width="100" x="1473" y="171"/><ellipse cx="1488" cy="187" fill="#ADD1B2" rx="11" ry="11" style="stroke:#181818;stroke-width:1.0;"/><path d="M1490.3438,182.6719 C1489.4063,182.2344 1488.8125,182.0938 1487.9375,182.0938 C1485.3125,182.0938 1483.3125,184.1719 1483.3125,186.8906 L1483.3125,188.0156 C1483.3125,190.5938 1485.4219,192.4844 1488.3125,192.4844 C1489.5313,192.4844 1490.6875,192.1875 1491.4375,191.6406 C1492.0156,191.2344 1492.3438,190.7813 1492.3438,190.3906 C1492.3438,189.9375 1491.9531,189.5469 1491.4844,189.5469 C1491.2656,189.5469 1491.0625,189.625 1490.875,189.8125 C1490.4219,190.2969 1490.4219,190.2969 1490.2344,190.3906 C1489.8125,190.6563 1489.125,190.7813 1488.3594,190.7813 C1486.3125,190.7813 1485.0156,189.6875 1485.0156,187.9844 L1485.0156,186.8906 C1485.0156,185.1094 1486.2656,183.7969 1488,183.7969 C1488.5781,183.7969 1489.1875,183.9531 1489.6563,184.2031 C1490.1406,184.4844 1490.3125,184.7031 1490.4063,185.1094 C1490.4688,185.5156 1490.5,185.6406 1490.6406,185.7656 C1490.7813,185.9063 1491.0156,186.0156 1491.2344,186.0156 C1491.5,186.0156 1491.7656,185.875 1491.9375,185.6563 C1492.0469,185.5 1492.0781,185.3125 1492.0781,184.8906 L1492.0781,183.4688 C1492.0781,183.0313 1492.0625,182.9063 1491.9688,182.75 C1491.8125,182.4844 1491.5313,182.3438 1491.2344,182.3438 C1490.9375,182.3438 1490.7344,182.4375 1490.5156,182.75 L1490.3438,182.6719 Z " fill="#000000"/><text fill="#000000" font-family="sans-serif" font-size="14" lengthAdjust="spacing" textLength="68" x="1502" y="191.8467">Pokemon</text><line style="stroke:#181818;stroke-width:0.5;" x1="1474" x2="1572" y1="203" y2="203"/><line style="stroke:#181818;stroke-width:0.5;" x1="1474" x2="1572" y1="211" y2="211"/></g><!--reverse link PhysicalMove to Bite--><g id="link_PhysicalMove_Bite"><path codeLine="82" d="M2061.7503,198.5699 C2303.7303,206.5179 3138.86,238.06 3243,299 C3309.05,337.65 3351.79,418.875 3373.6,470.945 " fill="none" id="PhysicalMove-backto-Bite" style="stroke:#181818;stroke-width:1.0;"/><polygon fill="none" points="2043.76,197.979,2061.5533,204.5667,2061.9473,192.5731,2043.76,197.979" style="stroke:#181818;stroke-width:1.0;"/></g><!--reverse link PhysicalMove to FuryAttack--><g id="link_PhysicalMove_FuryAttack"><path codeLine="83" d="M2061.7669,198.9689 C2281.3469,207.3419 2978.98,238.394 3061,299 C3118.89,341.781 3140.14,428.227 3147.81,478.932 " fill="none" id="PhysicalMove-backto-FuryAttack" style="stroke:#181818;stroke-width:1.0;"/><polygon fill="none" points="2043.78,198.283,2061.5383,204.9645,2061.9956,192.9732,2043.78,198.283" style="stroke:#181818;stroke-width:1.0;"/></g><!--reverse link PhysicalMove to Guillotine--><g id="link_PhysicalMove_Guillotine"><path codeLine="84" d="M2061.7502,198.3037 C2226.6002,203.7527 2644.45,224.426 2765,299 C2829.69,339.018 2872.59,419.032 2894.84,470.604 " fill="none" id="PhysicalMove-backto-Guillotine" style="stroke:#181818;stroke-width:1.0;"/><polygon fill="none" points="2043.76,197.709,2061.552,204.3004,2061.9484,192.3069,2043.76,197.709" style="stroke:#181818;stroke-width:1.0;"/></g><!--reverse link SpecialMove to HydroPump--><g id="link_SpecialMove_HydroPump"><path codeLine="85" d="M1840.6569,234.8785 C1853.6569,257.7425 1868.02,275.734 1899,291 C1919.65,301.174 2087.14,285.811 2106,299 C2165.07,340.299 2185.44,427.707 2192.41,478.885 " fill="none" id="SpecialMove-backto-HydroPump" style="stroke:#181818;stroke-width:1.0;"/><polygon fill="none" points="1831.76,219.231,1835.441,237.8442,1845.8727,231.9129,1831.76,219.231" style="stroke:#181818;stroke-width:1.0;"/></g><!--reverse link StatusMove to LightScreen--><g id="link_StatusMove_LightScreen"><path codeLine="86" d="M1646.0114,234.9477 C1633.6814,257.4197 1620.39,274.664 1591,291 C1563.24,306.429 1547.18,282.583 1520,299 C1454.55,338.526 1411.33,419.085 1389.03,470.843 " fill="none" id="StatusMove-backto-LightScreen" style="stroke:#181818;stroke-width:1.0;"/><polygon fill="none" points="1654.67,219.167,1640.7512,232.0615,1651.2716,237.8338,1654.67,219.167" style="stroke:#181818;stroke-width:1.0;"/></g><!--reverse link PhysicalMove to ShadowPunch--><g id="link_PhysicalMove_ShadowPunch"><path codeLine="87" d="M2061.5386,200.2751 C2199.0186,208.4091 2500.3,233.008 2583,299 C2638.95,343.641 2660.86,428.594 2669.17,478.713 " fill="none" id="PhysicalMove-backto-ShadowPunch" style="stroke:#181818;stroke-width:1.0;"/><polygon fill="none" points="2043.57,199.212,2061.1842,206.2646,2061.8929,194.2856,2043.57,199.212" style="stroke:#181818;stroke-width:1.0;"/></g><!--reverse link StatusMove to SwordsDance--><g id="link_StatusMove_SwordsDance"><path codeLine="88" d="M1686.3407,234.885 C1698.9007,257.361 1712.41,274.676 1742,291 C1769.8,306.339 1785.9,282.455 1813,299 C1877.85,338.583 1919.99,419.125 1941.6,470.864 " fill="none" id="StatusMove-backto-SwordsDance" style="stroke:#181818;stroke-width:1.0;"/><polygon fill="none" points="1677.56,219.172,1681.103,237.8119,1691.5784,231.9581,1677.56,219.172" style="stroke:#181818;stroke-width:1.0;"/></g><!--reverse link StatusMove to Synthesis--><g id="link_StatusMove_Synthesis"><path codeLine="89" d="M1666,237.193 C1666,289.692 1666,400.511 1666,470.819 " fill="none" id="StatusMove-backto-Synthesis" style="stroke:#181818;stroke-width:1.0;"/><polygon fill="none" points="1666,219.193,1660,237.193,1672,237.193,1666,219.193" style="stroke:#181818;stroke-width:1.0;"/></g><!--reverse link SpecialMove to ThunderShock--><g id="link_SpecialMove_ThunderShock"><path codeLine="90" d="M1840.554,235.0245 C1853.504,257.9805 1867.89,276.014 1899,291 C1937.85,309.711 2249.14,278.362 2287,299 C2354.39,335.736 2396.84,417.952 2418.21,470.677 " fill="none" id="SpecialMove-backto-ThunderShock" style="stroke:#181818;stroke-width:1.0;"/><polygon fill="none" points="1831.71,219.347,1835.3282,237.9725,1845.7798,232.0765,1831.71,219.347" style="stroke:#181818;stroke-width:1.0;"/></g><!--reverse link StatusMove to ThunderWave--><g id="link_StatusMove_ThunderWave"><path codeLine="91" d="M1646.8149,235.2389 C1634.7649,258.1629 1621.28,275.916 1591,291 C1554.39,309.235 1258.9,279.405 1223,299 C1155.63,335.774 1113.17,417.978 1091.8,470.691 " fill="none" id="StatusMove-backto-ThunderWave" style="stroke:#181818;stroke-width:1.0;"/><polygon fill="none" points="1655.19,219.306,1641.5039,232.4472,1652.1258,238.0306,1655.19,219.306" style="stroke:#181818;stroke-width:1.0;"/></g><!--reverse link Pokemon to Espeon--><g id="link_Pokemon_Espeon"><path codeLine="92" d="M1454.7675,199.6553 C1277.6075,209.4663 707.462,244.884 644,299 C588.559,346.276 580.785,438.987 580.798,487.397 " fill="none" id="Pokemon-backto-Espeon" style="stroke:#181818;stroke-width:1.0;"/><polygon fill="none" points="1472.74,198.66,1454.4358,193.6645,1455.0993,205.6461,1472.74,198.66" style="stroke:#181818;stroke-width:1.0;"/></g><!--reverse link Pokemon to Ludicolo--><g id="link_Pokemon_Ludicolo"><path codeLine="93" d="M1454.8247,198.6444 C1262.0347,206.4414 594.008,237.593 520,299 C463.722,345.696 454.765,438.66 454.178,487.259 " fill="none" id="Pokemon-backto-Ludicolo" style="stroke:#181818;stroke-width:1.0;"/><polygon fill="none" points="1472.81,197.917,1454.5822,192.6493,1455.0672,204.6395,1472.81,197.917" style="stroke:#181818;stroke-width:1.0;"/></g><!--reverse link Pokemon to Staryu--><g id="link_Pokemon_Staryu"><path codeLine="94" d="M1454.7964,197.7132 C1246.3164,203.2772 473.881,228.429 390,299 C334.441,345.743 328.268,438.687 329.191,487.271 " fill="none" id="Pokemon-backto-Staryu" style="stroke:#181818;stroke-width:1.0;"/><polygon fill="none" points="1472.79,197.233,1454.6363,191.7154,1454.9565,203.7111,1472.79,197.233" style="stroke:#181818;stroke-width:1.0;"/></g><!--reverse link Pokemon to Ursaring--><g id="link_Pokemon_Ursaring"><path codeLine="95" d="M1454.9292,199.5104 C1327.2292,206.7894 1011.7,230.982 928,299 C869.467,346.569 850.131,439.151 843.884,487.466 " fill="none" id="Pokemon-backto-Ursaring" style="stroke:#181818;stroke-width:1.0;"/><polygon fill="none" points="1472.9,198.486,1454.5877,193.5201,1455.2706,205.5006,1472.9,198.486" style="stroke:#181818;stroke-width:1.0;"/></g><!--reverse link Venonat to Venomoth--><g id="link_Venonat_Venomoth"><path codeLine="96" d="M710,569.582 C710,592.232 710,604.805 710,627.542 " fill="none" id="Venonat-backto-Venomoth" style="stroke:#181818;stroke-width:1.0;"/><polygon fill="none" points="710,551.582,704,569.582,716,569.582,710,551.582" style="stroke:#181818;stroke-width:1.0;"/></g><!--reverse link Pokemon to Venonat--><g id="link_Pokemon_Venonat"><path codeLine="97" d="M1454.7508,196.2918 C1304.7708,197.6818 882.223,209.311 777,299 C721.206,346.557 711.004,439.145 709.678,487.464 " fill="none" id="Pokemon-backto-Venonat" style="stroke:#181818;stroke-width:1.0;"/><polygon fill="none" points="1472.75,196.125,1454.6952,190.2921,1454.8064,202.2916,1472.75,196.125" style="stroke:#181818;stroke-width:1.0;"/></g><!--SRC=[jLRBRjim4BphArYV70JH9nHeqJGja206rCUXw86XrX9XYYJuS2gaxhUNr9D9evfAPC2mkFJCx7X5xUgDLBYeCB8QFdC3geASOWCRJ7Qu08sCif3e7UKIArmXsUvdfcQ05123US4WIRfzj59sXHuIXDnds6CCVW7FGQKQKYbsS8UDOT024I8CQurMDvZo5S8QAPjEC5AFwLW8dQC7RR2XvB0ND4UL-ssT6KLvyUFdMOCvDD-3ZqhiGQy6VfVtFJLmB6_3J3tIiS_zTNtMgI3qfqcFfMJrhPINswqhYrvl7BiIF82rtb0EcYXwDoeS7llvQ5NzpXXdEixLYFVUncWzF_MLfOm9GtbaGKQyJpr6folEfpfNOcCh6MTmW7j_G_22obpJeZGPKG0yBdD0yBc3y7J5oKgSY_kDvQICCnaGlCaWV469idkXSlq1Sn9vUW92atqCdozH1cpx-XhLt9IWgOxqsCCRXtrmGdzVIklDPAM8VVv3XdSPngSxQrsMxtWFisnwGk3IXukRVDBsPKl_j_DVQWdYwFFSqzCMxistgybUONDA11FHmZsXQHJTUlBy6gng6otTmfl3swocPBygZNr9euLxWfVkrrFYtu2BIfWoMhmdUF5-_JznZiqiROVlfTtocTDpI0v94lS-S64lVh_rcUcs4ZtCPKetPQqfmUp6OPCvKtmXnM0uBwGuJjD9mKm2eR5wuOoSLdIlU5R72ORpRA7_70wfPJmE4sKHkKVTVvdR4dRgLtfysZkdRqfxJMQroqNKkWwvYDRG51TH6xhWe1RRt98vZV2Orxy0]--></g></svg>